<?xml version="1.0" encoding="utf-8"?>
<!-- Generator: Adobe Illustrator 26.0.1, SVG Export Plug-In . SVG Version: 6.00 Build 0)  -->
<svg version="1.1" id="logo-noam_Plan_de_travail_1"
	 xmlns="http://www.w3.org/2000/svg" xmlns:xlink="http://www.w3.org/1999/xlink" x="0px" y="0px" viewBox="0 0 119.7 41.1"
	 style="enable-background:new 0 0 119.7 41.1;" xml:space="preserve">
<style type="text/css">
	.st0{fill:#FFFFFF;}
</style>
<g>
	<path id="Tracé_58" class="st0" d="M165.3,10.3h-2.1L157,1.8v8.5h-1.7V0h2.1l6.1,8.5V0h1.7L165.3,10.3z"/>
	<path id="Tracé_59" class="st0" d="M186.2,9.3c0.6,0,0.9-0.7,0.9-0.7l0.3,1.2c0,0-0.5,0.7-1.7,0.7c-0.8,0-1.6-0.4-1.6-1.7V7.5
		c0,0-1.1,3-3.3,3c-1.1,0-1.8-0.7-1.8-1.6c0-1.2,1.1-2.9,5-3.4c0,0,0.1-1.5-1.6-1.5c-1,0-1.8,0.6-2.1,1.5l-1.6-0.5
		c0,0,0.7-2.2,3.7-2.2c2.2,0,3.3,1.2,3.2,2.7l-0.1,3.1C185.6,9,185.8,9.3,186.2,9.3z M181.5,9.3c1.4,0,2.7-2.4,2.7-2.9V5.9
		c-3,0.8-3.4,2-3.4,2.6C180.8,9.1,181,9.3,181.5,9.3L181.5,9.3z"/>
	<path id="Tracé_60" class="st0" d="M199.8,5.8c0-1.2-0.6-1.8-1.8-1.8c-1.9,0-2.1,1.5-2.1,2v4.4h-1.6V5.7c0-1.2-0.7-1.7-1.8-1.7
		c-1.9,0-2.1,1.5-2.1,2v4.4h-1.6V2.9h0.8l0.7,2.2c0,0,0.3-2.4,3-2.4c1.7,0,2.4,0.8,2.6,2c0.2-0.6,0.9-2,2.9-2s2.7,1.1,2.7,3v4.6
		h-1.6L199.8,5.8z"/>
	<path id="Tracé_61" class="st0" d="M178.4,9.5l-1-1.6v1h-2.5c0.5-0.7,0.8-1.5,0.8-2.4c0-2.2-1.6-3.9-4.2-3.9c-2.5,0-4,1.5-4.2,3.5
		h-0.6l1.6,1l1.5-1H169c0.1-1.4,1-2.3,2.5-2.3c1.5,0,2.5,1.1,2.5,2.7s-1,2.7-2.5,2.7c-1.4,0-2.3-0.9-2.5-2.2l-0.8,0.5L167.3,7
		c0.1,0.7,0.3,1.4,0.7,2h-1.9v1.4h11.3v0.7L178.4,9.5z"/>
</g>
<g>
	<path id="Tracé_58_00000027568299291586146630000003007029673704137605_" class="st0" d="M173.8,38.3h-3.9l-11.3-15.8v15.8h-3.2
		V19.1h3.9l11.3,15.8V19.1h3.2L173.8,38.3z"/>
	<path id="Tracé_59_00000010301426577863933960000004224693948775118266_" class="st0" d="M212.7,36.4c1.2,0,1.7-1.2,1.7-1.2
		l0.6,2.2c0,0-0.9,1.2-3.2,1.2c-1.5,0-3.1-0.8-3.1-3.2v-2.3c0,0-2,5.5-6.1,5.5c-2,0-3.3-1.3-3.3-3c0-2.3,2-5.5,9.4-6.3
		c0,0,0.2-2.9-2.9-2.9c-1.8-0.1-3.4,1.1-3.9,2.8l-3.1-0.9c0,0,1.3-4.1,6.8-4.1c4.1,0,6.1,2.2,6,5l-0.1,5.7
		C211.6,35.9,211.9,36.4,212.7,36.4z M203.8,36.4c2.6,0,5-4.4,4.9-5.4v-0.9c-5.5,1.4-6.2,3.6-6.2,4.9
		C202.5,35.9,203,36.4,203.8,36.4L203.8,36.4z"/>
	<path id="Tracé_60_00000007396313161046731260000011240095609903290785_" class="st0" d="M237.8,29.9c0-2.3-1.2-3.4-3.4-3.4
		c-3.5,0-4,2.9-4,3.7v8.1h-3v-8.6c-0.1-2.2-1.2-3.2-3.4-3.2c-3.5,0-4,2.9-4,3.7v8.1h-3V24.6h1.4l1.3,4.1c0,0,0.6-4.4,5.6-4.4
		c3.1,0,4.5,1.4,4.9,3.8c0.4-1.2,1.6-3.8,5.4-3.8s5,2.1,5,5.5v8.5h-3L237.8,29.9z"/>
	<path id="Tracé_61_00000142871562999701923030000015291754138047463040_" class="st0" d="M198.2,36.8l-1.9-2.9v1.9h-4.7
		c1-1.3,1.5-2.8,1.5-4.4c0-4-2.9-7.2-7.8-7.2c-4.6,0-7.4,2.8-7.7,6.5h-1.1l2.9,1.9l2.8-1.9h-1.4c0.3-2.6,1.9-4.3,4.6-4.3
		c2.8,0,4.6,2,4.6,5s-1.8,5-4.6,5c-2.6,0-4.2-1.6-4.5-4.1l-1.4,1l-1.7-1.2c0.1,1.3,0.6,2.6,1.3,3.7h-3.5v2.6h20.9v1.3L198.2,36.8z"
		/>
</g>
<g>
	<path id="Tracé_58_00000146491192825486155020000003271926003229441958_" class="st0" d="M25.9,33h-5.5L4.5,10.8V33H0V6.2h5.5
		l15.9,22.1V6.2h4.5L25.9,33z"/>
	<path id="Tracé_59_00000037653411146381879540000016202557831780354458_" class="st0" d="M80.3,30.4c1.7,0,2.4-1.7,2.4-1.7
		l0.8,3.1c0,0-1.3,1.7-4.5,1.7c-2.1,0-4.3-1.1-4.3-4.4v-3.3c0,0-2.8,7.7-8.5,7.7c-2.8,0-4.6-1.8-4.6-4.2c0-3.2,2.8-7.7,13.1-8.8
		c0,0,0.3-4-4.1-4c-2.5-0.1-4.7,1.5-5.4,3.9L61.1,19c0,0,1.9-5.7,9.6-5.7c5.7,0,8.5,3.1,8.4,7l-0.2,8C78.8,29.6,79.2,30.4,80.3,30.4
		z M67.9,30.4c3.7,0,7-6.1,6.9-7.6v-1.2c-7.7,2-8.7,5.1-8.7,6.8C66.1,29.7,66.8,30.4,67.9,30.4L67.9,30.4z"/>
	<path id="Tracé_60_00000013194092001623826350000003937041806560149123_" class="st0" d="M115.5,21.2c0-3.2-1.6-4.8-4.7-4.8
		c-4.9,0-5.6,4-5.6,5.2V33h-4.1v-12c-0.1-3-1.7-4.5-4.7-4.5c-4.9,0-5.5,4-5.5,5.2V33h-4.1V13.8h2l1.8,5.7c0,0,0.8-6.2,7.8-6.2
		c4.3,0,6.3,2,6.8,5.3c0.5-1.7,2.2-5.3,7.6-5.3s7,2.9,7,7.8V33h-4.1L115.5,21.2z"/>
	<path id="Tracé_61_00000042707228560412851100000016465135026391362433_" class="st0" d="M60,31l-2.7-4v2.7h-6.6
		c1.4-1.8,2.1-4,2-6.2c0-5.6-4-10-10.9-10c-6.4,0-10.4,3.9-10.8,9.1h-1.6l4,2.7l4-2.7h-2c0.4-3.6,2.7-6,6.4-6c3.9,0,6.5,2.8,6.5,7
		s-2.5,7-6.5,7c-3.6,0-5.9-2.3-6.4-5.7l-2,1.4l-2.4-1.6c0.1,1.9,0.8,3.7,1.9,5.2h-4.9v3.6h29.3v1.8L60,31z"/>
</g>
<g>
	<path id="Tracé_58_00000137814881716264513240000005327342406160914602_" class="st0" d="M35.6,149.9h-7.9L5.1,118.4v31.5h-6.4
		v-38.2h7.9l22.7,31.5v-31.5h6.4L35.6,149.9z"/>
	<path id="Tracé_59_00000174586888515774714350000001292840083472224388_" class="st0" d="M113.2,146.2c2.4,0,3.5-2.5,3.5-2.5
		l1.2,4.4c0,0-1.8,2.5-6.4,2.5c-3,0-6.1-1.5-6.1-6.3v-4.7c0,0-3.9,11-12.1,11c-4,0-6.6-2.6-6.6-6c0-4.6,4-10.9,18.7-12.6
		c0,0,0.5-5.7-5.8-5.7c-3.5-0.2-6.7,2.1-7.7,5.5l-6.1-1.8c0,0,2.6-8.1,13.6-8.1c8.2,0,12.1,4.4,12,10l-0.3,11.4
		C111,145.1,111.6,146.2,113.2,146.2z M95.5,146.2c5.2,0,9.9-8.7,9.8-10.8v-1.7c-11,2.8-12.4,7.3-12.4,9.7
		C92.9,145.2,93.9,146.2,95.5,146.2L95.5,146.2z"/>
	<path id="Tracé_60_00000132766457919599204910000015379908058803960484_" class="st0" d="M163.3,133.1c0-4.6-2.3-6.8-6.7-6.8
		c-6.9,0-7.9,5.7-7.9,7.4v16.2h-5.9v-17.1c-0.1-4.3-2.5-6.4-6.7-6.4c-6.9,0-7.9,5.7-7.9,7.4v16.2h-5.9v-27.3h2.9l2.5,8.1
		c0,0,1.2-8.8,11.1-8.8c6.2,0,8.9,2.8,9.7,7.6c0.7-2.4,3.2-7.6,10.8-7.6c7.6,0,10,4.2,10,11.1v16.9h-5.9L163.3,133.1z"/>
	<path id="Tracé_61_00000094617026431090992990000002309376068157807790_" class="st0" d="M84.2,147.1l-3.8-5.7v3.8H71
		c1.9-2.5,3-5.6,2.9-8.8c0-8-5.7-14.3-15.5-14.3c-9.2,0-14.8,5.6-15.4,12.9h-2.3l5.7,3.8l5.7-3.8h-2.8c0.5-5.1,3.9-8.5,9.1-8.5
		c5.6,0,9.2,4,9.2,9.9s-3.6,10-9.2,10c-5.1,0-8.4-3.3-9.1-8.2l-2.9,1.9l-3.5-2.3c0.2,2.7,1.1,5.2,2.7,7.4h-7v5.1h41.7v2.5
		L84.2,147.1z"/>
</g>
</svg>
