<svg xmlns="http://www.w3.org/2000/svg" viewBox="0 0 110 28" role="img" aria-label="Logo VictorIa"
  title="Logo VictorIa">
  <g><path
      d="M21.8026 2.56788C21.5411 2.57813 21.2242 2.63964 20.8521 2.7524C20.4799 2.85491 20.1731 2.98305 19.9317 3.13681C19.5897 3.35208 19.3131 3.62886 19.1018 3.96715C18.9006 4.30543 18.6995 4.70522 18.4983 5.16652C17.8243 6.79643 16.8134 9.33868 15.4655 12.7933C14.1176 16.2376 12.7295 19.8306 11.3012 23.5722H10.0488C8.60034 19.6051 7.20216 15.7815 5.85427 12.1013C4.50638 8.42122 3.59102 5.93534 3.10819 4.64371C2.98749 4.32593 2.82655 4.04915 2.62537 3.81338C2.42419 3.56736 2.15763 3.33671 1.82569 3.12144C1.5541 2.94717 1.25233 2.81903 0.920388 2.73702C0.588445 2.64476 0.281649 2.58838 0 2.56788V1.47615H8.85685V2.56788C8.10243 2.60889 7.46369 2.68577 6.94063 2.79853C6.42763 2.91129 6.17112 3.11119 6.17112 3.39821C6.17112 3.51098 6.19124 3.64424 6.23148 3.798C6.27171 3.95177 6.30692 4.07478 6.3371 4.16704C6.70927 5.17164 7.31281 6.81181 8.14769 9.08753C8.98258 11.353 10.1695 14.5821 11.7085 18.7747C12.473 16.8783 13.3532 14.6385 14.349 12.0552C15.3448 9.47195 16.0137 7.69852 16.3557 6.73492C16.6877 5.80208 16.8788 5.15626 16.9291 4.79748C16.9895 4.43869 17.0196 4.14654 17.0196 3.92102C17.0196 3.68524 16.914 3.49047 16.7028 3.33671C16.5016 3.17269 16.23 3.0343 15.888 2.92154C15.5561 2.81903 15.2191 2.74215 14.8771 2.69089C14.5351 2.63964 14.1881 2.59863 13.836 2.56788V1.47615H21.8026V2.56788Z"
      fill="black"></path><path
      d="M29.4977 23.2955H22.3005V22.2806C22.5319 22.2601 22.7683 22.2396 23.0097 22.2191C23.2612 22.1986 23.4774 22.1576 23.6585 22.0961C23.9401 22.0038 24.1463 21.8449 24.2771 21.6194C24.4179 21.3836 24.4883 21.0812 24.4883 20.7122V11.3479C24.4883 11.0198 24.4129 10.7226 24.262 10.456C24.1212 10.1793 23.92 9.94862 23.6585 9.7641C23.4674 9.64109 23.1908 9.53858 22.8286 9.45657C22.4665 9.36431 22.1346 9.30793 21.8328 9.28743V8.28795L27.0835 7.94967L27.2948 8.16494V20.5277C27.2948 20.8865 27.3602 21.1837 27.4909 21.4195C27.6318 21.6553 27.848 21.8296 28.1397 21.9423C28.361 22.0346 28.5773 22.1115 28.7885 22.173C28.9998 22.2242 29.2361 22.2601 29.4977 22.2806V23.2955ZM27.5965 1.9682C27.5965 2.5525 27.4054 3.06506 27.0232 3.50585C26.651 3.93639 26.1883 4.15166 25.6351 4.15166C25.1221 4.15166 24.6744 3.94664 24.2922 3.5366C23.92 3.11631 23.7339 2.63964 23.7339 2.10659C23.7339 1.54278 23.92 1.05073 24.2922 0.630438C24.6744 0.210146 25.1221 0 25.6351 0C26.2084 0 26.6762 0.199895 27.0383 0.599685C27.4105 0.989224 27.5965 1.44539 27.5965 1.9682Z"
      fill="black"></path><path
      d="M38.2036 23.6952C36.051 23.6952 34.3662 22.9674 33.149 21.5118C31.9319 20.0561 31.3234 18.1033 31.3234 15.6533C31.3234 14.5872 31.4843 13.5929 31.8062 12.6703C32.1381 11.7374 32.6159 10.8917 33.2396 10.1331C33.8331 9.40531 34.5774 8.82101 35.4726 8.38021C36.3679 7.92917 37.3436 7.70364 38.3998 7.70364C39.8583 7.70364 41.0453 8.06243 41.9606 8.78C42.876 9.48732 43.3337 10.456 43.3337 11.6862C43.3337 12.1987 43.213 12.6549 42.9715 13.0547C42.7301 13.4442 42.3328 13.639 41.7796 13.639C41.1861 13.639 40.7234 13.4852 40.3914 13.1777C40.0696 12.8702 39.9086 12.5268 39.9086 12.1475C39.9086 11.6862 39.969 11.2146 40.0897 10.7328C40.2104 10.2408 40.2808 9.88199 40.3009 9.65646C40.1199 9.33868 39.8483 9.12854 39.4861 9.02603C39.1341 8.91327 38.7518 8.85688 38.3394 8.85688C37.8566 8.85688 37.3939 8.96452 36.9513 9.17979C36.5188 9.38481 36.0963 9.76923 35.6839 10.333C35.3117 10.8456 35.0099 11.5375 34.7786 12.4089C34.5472 13.2802 34.4316 14.3207 34.4316 15.5303C34.4316 17.437 34.844 18.9951 35.6688 20.2048C36.5037 21.4041 37.5951 22.0038 38.943 22.0038C39.9187 22.0038 40.7334 21.7629 41.3873 21.2811C42.0512 20.7993 42.6647 20.0766 43.228 19.113L44.1937 19.7588C43.5298 20.9685 42.6547 21.9269 41.5683 22.6343C40.482 23.3416 39.3604 23.6952 38.2036 23.6952Z"
      fill="black"></path><path
      d="M54.5443 22.6343C53.8905 22.911 53.2718 23.1417 52.6884 23.3262C52.105 23.521 51.3908 23.6184 50.5459 23.6184C49.2986 23.6184 48.4184 23.3006 47.9054 22.665C47.4025 22.0192 47.151 21.112 47.151 19.9434V9.67184H44.4653V8.19569H47.2114V3.4751H49.9574V8.19569H54.2274V9.67184H49.9876V18.1443C49.9876 18.7799 50.0077 19.3129 50.048 19.7435C50.0983 20.1638 50.2089 20.5328 50.3799 20.8506C50.5409 21.1479 50.7823 21.3734 51.1042 21.5272C51.426 21.6809 51.8586 21.7578 52.4017 21.7578C52.6532 21.7578 53.0204 21.7373 53.5032 21.6963C53.9961 21.645 54.3431 21.5835 54.5443 21.5118V22.6343Z"
      fill="black"></path><path
      d="M70.5379 15.5611C70.5379 16.6272 70.3719 17.6779 70.04 18.7132C69.7081 19.7383 69.2353 20.6097 68.6217 21.3273C67.9276 22.1473 67.1229 22.7573 66.2076 23.1571C65.2922 23.5569 64.2662 23.7567 63.1295 23.7567C62.184 23.7567 61.2837 23.5774 60.4287 23.2186C59.5737 22.8495 58.8143 22.3165 58.1504 21.6194C57.4966 20.9326 56.9735 20.0971 56.5812 19.113C56.199 18.1187 56.0079 17.0064 56.0079 15.7763C56.0079 13.4083 56.6818 11.4709 58.0297 9.96399C59.3876 8.45709 61.163 7.70364 63.3559 7.70364C65.4381 7.70364 67.1531 8.42122 68.501 9.85636C69.8589 11.2813 70.5379 13.1828 70.5379 15.5611ZM67.4146 15.5918C67.4146 14.823 67.3392 14.0131 67.1883 13.1623C67.0374 12.3012 66.8111 11.5734 66.5093 10.9788C66.1874 10.3433 65.765 9.83586 65.2419 9.45657C64.7188 9.06703 64.0801 8.87226 63.3257 8.87226C62.5512 8.87226 61.8873 9.06703 61.334 9.45657C60.7909 9.84611 60.3483 10.3792 60.0063 11.0557C59.6844 11.681 59.4581 12.3935 59.3273 13.1931C59.1965 13.9926 59.1311 14.7666 59.1311 15.5149C59.1311 16.499 59.2066 17.4114 59.3575 18.2519C59.5184 19.0823 59.7699 19.8255 60.1119 20.4815C60.4539 21.1376 60.8814 21.6553 61.3944 22.0346C61.9175 22.4036 62.5612 22.5881 63.3257 22.5881C64.5831 22.5881 65.5789 21.9679 66.3132 20.7276C67.0475 19.4872 67.4146 17.7753 67.4146 15.5918Z"
      fill="black"></path><path
      d="M84.0872 10.087C84.0872 10.6098 83.9615 11.0762 83.71 11.4863C83.4585 11.8861 83.0713 12.086 82.5482 12.086C81.9849 12.086 81.5524 11.9373 81.2506 11.64C80.9589 11.3428 80.8131 11.0147 80.8131 10.6559C80.8131 10.4304 80.8281 10.2254 80.8583 10.0409C80.8986 9.85636 80.9338 9.67184 80.9639 9.48732C80.4912 9.48732 79.9379 9.68209 79.3042 10.0716C78.6705 10.4612 78.1324 11.0147 77.6898 11.7323V20.5584C77.6898 20.9172 77.7552 21.2094 77.8859 21.4349C78.0268 21.6604 78.243 21.8296 78.5347 21.9423C78.7862 22.0448 79.1081 22.1217 79.5004 22.173C79.9027 22.2242 80.2498 22.2601 80.5415 22.2806V23.2955H72.6955V22.2806C72.9269 22.2601 73.1633 22.2396 73.4047 22.2191C73.6562 22.1986 73.8724 22.1576 74.0535 22.0961C74.3351 22.0038 74.5414 21.8449 74.6721 21.6194C74.8129 21.3836 74.8833 21.0812 74.8833 20.7122V11.3479C74.8833 11.0301 74.8079 10.7174 74.657 10.4099C74.5162 10.1024 74.315 9.85636 74.0535 9.67184C73.8624 9.54883 73.636 9.46169 73.3745 9.41044C73.113 9.34893 72.8313 9.30793 72.5296 9.28743V8.28795L77.4785 7.94967L77.6898 8.16494V10.3023H77.7652C78.3889 9.47195 79.0829 8.84151 79.8474 8.41096C80.6119 7.98042 81.311 7.76515 81.9447 7.76515C82.5784 7.76515 83.0914 7.9753 83.4837 8.39559C83.886 8.81588 84.0872 9.37969 84.0872 10.087Z"
      fill="black"></path><path
      d="M110 23.0187C109.527 23.1929 109.11 23.3313 108.748 23.4338C108.396 23.5466 107.993 23.603 107.541 23.603C106.756 23.603 106.127 23.4185 105.655 23.0494C105.192 22.6701 104.895 22.1217 104.764 21.4041H104.674C104.02 22.1422 103.316 22.706 102.561 23.0956C101.817 23.4851 100.917 23.6799 99.8606 23.6799C98.7441 23.6799 97.8237 23.3313 97.0995 22.6343C96.3853 21.9372 96.0282 21.0248 96.0282 19.8972C96.0282 19.3129 96.1087 18.7901 96.2696 18.3288C96.4306 17.8675 96.672 17.4524 96.9939 17.0833C97.2453 16.7758 97.5773 16.5041 97.9897 16.2684C98.4021 16.0223 98.7894 15.8276 99.1515 15.6841C99.6041 15.5098 100.52 15.1869 101.898 14.7153C103.286 14.2438 104.221 13.8748 104.704 13.6082V12.086C104.704 11.9527 104.674 11.6964 104.613 11.3171C104.563 10.9378 104.448 10.5791 104.266 10.2408C104.065 9.86149 103.779 9.53345 103.406 9.25667C103.044 8.96965 102.526 8.82613 101.852 8.82613C101.39 8.82613 100.957 8.90814 100.555 9.07216C100.162 9.22592 99.8858 9.38994 99.7249 9.56421C99.7249 9.76923 99.7701 10.0716 99.8606 10.4714C99.9612 10.8712 100.012 11.2402 100.012 11.5785C100.012 11.9373 99.8506 12.2653 99.5287 12.5626C99.2169 12.8599 98.7793 13.0085 98.216 13.0085C97.7131 13.0085 97.3409 12.8292 97.0995 12.4704C96.8681 12.1013 96.7525 11.6913 96.7525 11.2402C96.7525 10.7687 96.9134 10.3177 97.2353 9.88711C97.5672 9.45657 97.9947 9.07216 98.5178 8.73387C98.9704 8.44684 99.5187 8.20594 100.162 8.01118C100.806 7.80615 101.435 7.70364 102.048 7.70364C102.893 7.70364 103.628 7.76515 104.251 7.88816C104.885 8.00092 105.458 8.25207 105.971 8.64161C106.484 9.0209 106.872 9.53858 107.133 10.1946C107.405 10.8405 107.541 11.6759 107.541 12.701C107.541 14.1669 107.526 15.4688 107.495 16.6067C107.465 17.7343 107.45 18.9695 107.45 20.3124C107.45 20.7122 107.515 21.03 107.646 21.2657C107.787 21.5015 107.998 21.7014 108.28 21.8654C108.431 21.9577 108.667 22.0089 108.989 22.0192C109.321 22.0294 109.658 22.0346 110 22.0346V23.0187ZM104.734 14.8999C103.879 15.1561 103.13 15.4073 102.486 15.6533C101.842 15.8993 101.244 16.2069 100.691 16.5759C100.188 16.9244 99.7902 17.3396 99.4985 17.8214C99.2068 18.293 99.061 18.8568 99.061 19.5128C99.061 20.3637 99.2772 20.989 99.7098 21.3888C100.152 21.7886 100.711 21.9884 101.385 21.9884C102.099 21.9884 102.727 21.8142 103.271 21.4656C103.814 21.1069 104.271 20.6866 104.644 20.2048L104.734 14.8999Z"
      fill="black"></path><path
      d="M94.9877 28L90.0113 26.9083L85.3463 28V26.9083C85.6179 26.8878 86.0102 26.857 86.5232 26.816C87.0362 26.775 87.3983 26.7135 87.6095 26.6315C87.9415 26.4982 88.1829 26.3188 88.3337 26.0933C88.4846 25.8575 88.5601 25.5346 88.5601 25.1246V5.51423C88.5601 5.15545 88.5048 4.85817 88.3941 4.62239C88.2835 4.37637 88.0219 4.17135 87.6095 4.00733C87.3077 3.88432 86.9255 3.77156 86.4628 3.66905C86.0101 3.55629 85.638 3.48966 85.3463 3.46915V2.37742L90.0113 2.85283L94.9877 2.37742V3.46915C94.6759 3.4794 94.3037 3.52041 93.8712 3.59217C93.4386 3.65367 93.0614 3.73568 92.7395 3.83819C92.3573 3.9612 92.1008 4.1611 91.97 4.43788C91.8393 4.71465 91.7739 5.02218 91.7739 5.36047V24.9554C91.7739 25.2937 91.8443 25.5961 91.9851 25.8627C92.136 26.1189 92.3875 26.324 92.7395 26.4777C92.9508 26.5597 93.2928 26.652 93.7655 26.7545C94.2484 26.8468 94.6558 26.898 94.9877 26.9083V28Z"
      fill="black"></path>/&gt;</g>
</svg>