<?xml version="1.0" encoding="UTF-8" standalone="no"?>
<!-- Created with Inkscape (http://www.inkscape.org/) -->

<svg
   width="451.16855mm"
   height="276.42242mm"
   viewBox="0 0 451.16855 276.42242"
   version="1.1"
   id="svg1"
   xml:space="preserve"
   xmlns="http://www.w3.org/2000/svg"
   xmlns:svg="http://www.w3.org/2000/svg"><defs
     id="defs1" /><g
     id="layer1"
     transform="translate(120.56663,-12.754717)"><path
       d="m -25.509609,12.935804 c 2.04612,0.03528 15.52223,0.246944 29.98612,0.458611 14.46388,0.211666 36.195,0.529166 48.33055,0.705555 12.13556,0.176389 32.91417,0.493889 46.21389,0.705556 13.299719,0.211666 34.148889,0.529166 46.390279,0.705555 12.20611,0.176389 33.655,0.529167 47.625,0.705556 13.97,0.211667 33.02,0.529167 42.33333,0.705555 l 16.93333,0.282223 4.62139,1.27 c 25.25889,6.843888 45.75528,21.060833 56.40917,39.158333 5.46805,9.348611 12.17083,27.975278 14.95777,41.768889 1.86973,9.207503 2.25778,13.158613 2.29306,23.001113 0,11.00667 -0.67028,16.33361 -3.35139,27.48139 -1.76389,7.3025 -6.87917,20.91972 -10.01889,26.67 -3.56305,6.52639 -9.31333,13.37028 -15.48694,18.30916 -12.065,9.70139 -29.63333,17.145 -47.625,20.17889 l -3.73945,0.635 -0.91722,2.8575 c -2.36361,7.44361 -10.96205,14.84261 -5.53182,38.3405 19.38735,25.65017 23.06225,29.38195 21.03604,32.27795 -14.7752,-9.48138 -41.67829,-25.73947 -50.25283,-38.97428 l -9.63083,-32.17333 H 83.534011 -38.033219 l -5.15055,-0.84667 c -27.69306,-4.65667 -49.53,-17.85056 -60.607221,-36.68889 -4.69195,-8.00805 -10.40695,-23.07167 -13.26445,-34.96028 -2.68111,-11.14777 -3.52778,-18.45027 -3.4925,-30.51527 0.0706,-12.80584 1.30528,-21.801672 4.7625,-34.466394 3.70417,-13.405556 8.00806,-24.094723 12.59417,-31.150278 11.253611,-17.321389 32.138051,-30.268333 57.749721,-35.806944 4.16278,-0.917223 5.99722,-0.9525 19.93194,-0.635 z m -21.62527,5.538611 c -23.56556,5.715 -42.43917,17.744722 -52.56389,33.549166 -5.856111,9.172222 -11.782781,26.281945 -14.710841,42.509722 -2.29305,12.629447 -2.36361,28.680837 -0.21166,41.098617 2.8575,16.36888 9.80722,35.48944 16.686391,45.82583 2.54,3.84528 8.32555,10.01889 12.31194,13.26444 10.795,8.67834 24.765,14.605 42.50972,18.06223 l 4.02167,0.77611 123.33111,0.10583 c 122.413889,0.10583 123.331109,0.10583 123.966109,0.81139 0.38806,0.42333 8.46185,22.18456 13.68296,39.5765 26.40525,23.04545 62.38594,50.97412 20.8268,6.5393 -2.09294,-8.92567 -4.32656,-20.62602 -1.84254,-29.81747 0.9525,-2.92805 2.54,-7.83166 3.4925,-10.86555 2.82222,-8.67834 2.57528,-8.36084 6.06778,-8.74889 5.75028,-0.635 16.72167,-3.42195 23.84778,-6.06778 4.37444,-1.62278 12.62944,-5.57389 16.47472,-7.90222 8.85472,-5.32695 16.65111,-12.87639 21.37833,-20.6375 4.62139,-7.58472 10.08945,-22.93056 12.31195,-34.39584 1.69333,-8.89 2.25777,-20.99027 1.41111,-29.66861 C 324.44595,98.308026 320.00095,82.538859 312.83956,66.381637 307.44206,54.175526 298.12873,43.733303 285.464,35.68997 276.2565,29.869137 265.42623,25.177192 254.94873,22.566637 l -4.05695,-1.023056 -24.16527,-0.388055 c -30.48,-0.458611 -62.58278,-0.9525 -93.30973,-1.411111 -13.19389,-0.211667 -33.901939,-0.529167 -46.037499,-0.705556 -12.13555,-0.176389 -33.655,-0.529167 -47.80139,-0.740833 -14.18166,-0.211667 -32.73777,-0.493889 -41.275,-0.635 -8.53722,-0.141111 -21.13138,-0.282222 -27.97527,-0.3175 l -12.48834,-0.07056 z"
       id="path1"
       style="fill:#161616;fill-opacity:1;stroke:#090909;stroke-width:0.0352778;stroke-opacity:1" /><path
       style="fill:#ffffff;fill-opacity:1;stroke:#090909;stroke-width:2.93469;stroke-opacity:1"
       d="m 958.07701,1054.8568 c -23.53344,-16.8845 -84.67805,-66.29101 -105.97643,-85.63187 -11.41313,-10.36415 -13.47226,-14.92927 -33.26655,-73.75309 -11.60518,-34.4878 -23.58157,-68.49354 -26.61416,-75.56832 l -5.51385,-12.86322 -464.51928,-0.046 c -449.78333,-0.0445 -465.38236,-0.22814 -491.72512,-5.78868 -78.99364,-16.67427 -135.6467,-45.92412 -179.12791,-92.48338 -24.37517,-26.10072 -46.19048,-67.38608 -63.51887,-120.20919 -19.72819,-60.13855 -23.38156,-83.77048 -23.38156,-151.24395 0,-51.01402 0.98028,-64.66483 6.44735,-89.78171 13.43447,-61.72088 32.0481,-113.43283 53.94691,-149.87407 29.57799,-49.21996 99.41521,-97.42046 174.14606,-120.192724 23.02792,-7.017155 32.55899,-8.201479 74.38358,-9.242852 26.38426,-0.65693 278.62104,2.28115 560.52617,6.529067 l 512.55482,7.723485 26.41222,7.370692 c 73.30311,20.456222 141.45291,63.629622 179.38361,113.640892 34.2848,45.20411 68.4666,142.46641 77.4971,220.51331 8.0405,69.49216 -9.1396,157.98272 -44.2163,227.74692 -34.8899,69.39252 -112.097,119.27331 -218.02911,140.8609 -16.34025,3.32994 -31.39631,7.45429 -33.4579,9.16528 -2.06159,1.71095 -9.20472,19.78361 -15.87366,40.1614 -11.16277,34.10946 -12.11473,39.49659 -11.99226,67.86482 0.19236,44.55819 6.68041,71.34403 21.31466,87.99753 30.22768,34.39846 58.57998,68.74176 58.57998,70.95816 0,4.9453 -5.73703,2.1048 -27.9795,-13.8534 z"
       id="path2"
       transform="scale(0.26458333)" /></g></svg>
