<?xml version="1.0" standalone="no"?>
<!DOCTYPE svg PUBLIC "-//W3C//DTD SVG 20010904//EN"
 "http://www.w3.org/TR/2001/REC-SVG-20010904/DTD/svg10.dtd">
<svg version="1.0" xmlns="http://www.w3.org/2000/svg"
 width="1280.000000pt" height="770.000000pt" viewBox="0 0 1280.000000 770.000000"
 preserveAspectRatio="xMidYMid meet">
<metadata>
Created by potrace 1.15, written by Peter Selinger 2001-2017
</metadata>
<g transform="translate(0.000000,770.000000) scale(0.100000,-0.100000)"
fill="#000000" stroke="none">
<path d="M10100 7693 c-58 -1 -440 -7 -850 -13 -410 -6 -1026 -15 -1370 -20
-344 -5 -933 -14 -1310 -20 -377 -6 -968 -15 -1315 -20 -346 -5 -954 -15
-1350 -20 -396 -6 -936 -15 -1200 -20 l-480 -8 -131 -36 c-716 -194 -1297
-597 -1599 -1110 -155 -265 -345 -793 -424 -1184 -53 -261 -64 -373 -65 -652
0 -312 19 -463 95 -779 50 -207 195 -593 284 -756 101 -185 264 -379 439 -519
342 -275 840 -486 1350 -572 l106 -18 26 -81 c67 -211 273 -848 364 -1130 33
-99 96 -296 142 -438 45 -142 91 -267 101 -278 25 -26 65 -21 87 11 10 14 141
436 291 938 l273 912 3445 0 3446 0 146 24 c785 132 1404 506 1718 1040 133
227 295 654 376 991 76 316 100 523 99 865 -2 363 -37 618 -135 977 -105 380
-227 683 -357 883 -319 491 -911 858 -1637 1015 -118 26 -170 27 -565 18z
m613 -157 c668 -162 1203 -503 1490 -951 166 -260 334 -745 417 -1205 65 -358
67 -813 6 -1165 -81 -464 -278 -1006 -473 -1299 -72 -109 -236 -284 -349 -376
-306 -246 -702 -414 -1205 -512 l-114 -22 -3496 -3 c-3470 -3 -3496 -3 -3514
-23 -11 -12 -123 -369 -271 -862 -139 -464 -255 -836 -258 -828 -3 8 -60 184
-127 390 -66 206 -143 445 -171 530 -27 85 -72 224 -99 308 -27 83 -72 222
-99 308 -80 246 -73 237 -172 248 -163 18 -474 97 -676 172 -124 46 -358 158
-467 224 -251 151 -472 365 -606 585 -131 215 -286 650 -349 975 -48 252 -64
595 -40 841 40 402 166 849 369 1307 153 346 417 642 776 870 261 165 568 298
865 372 l115 29 685 11 c864 13 1774 27 2645 40 374 6 961 15 1305 20 344 5
954 15 1355 21 402 6 928 14 1170 18 242 4 599 8 793 9 l354 2 141 -34z"/>
</g>
</svg>
